<svg width="50" height="50" viewBox="0 0 40 40" fill="none" xmlns="http://www.w3.org/2000/svg">
<path d="M20 14C20.7956 14 21.5587 13.6839 22.1213 13.1213C22.6839 12.5587 23 11.7956 23 11C23 10.2044 22.6839 9.44129 22.1213 8.87868C21.5587 8.31607 20.7956 8 20 8C19.2044 8 18.4413 8.31607 17.8787 8.87868C17.3161 9.44129 17 10.2044 17 11C17 11.7956 17.3161 12.5587 17.8787 13.1213C18.4413 13.6839 19.2044 14 20 14ZM9.5 17C9.10218 17 8.72064 17.158 8.43934 17.4393C8.15804 17.7206 8 18.1022 8 18.5C8 18.8978 8.15804 19.2794 8.43934 19.5607C8.72064 19.842 9.10218 20 9.5 20H30.5C30.8978 20 31.2794 19.842 31.5607 19.5607C31.842 19.2794 32 18.8978 32 18.5C32 18.1022 31.842 17.7206 31.5607 17.4393C31.2794 17.158 30.8978 17 30.5 17H9.5ZM8 24.5C8 24.1022 8.15804 23.7206 8.43934 23.4393C8.72064 23.158 9.10218 23 9.5 23H30.5C30.8978 23 31.2794 23.158 31.5607 23.4393C31.842 23.7206 32 24.1022 32 24.5C32 24.8978 31.842 25.2794 31.5607 25.5607C31.2794 25.842 30.8978 26 30.5 26H9.5C9.10218 26 8.72064 25.842 8.43934 25.5607C8.15804 25.2794 8 24.8978 8 24.5ZM9.5 29C9.10218 29 8.72064 29.158 8.43934 29.4393C8.15804 29.7206 8 30.1022 8 30.5C8 30.8978 8.15804 31.2794 8.43934 31.5607C8.72064 31.842 9.10218 32 9.5 32H30.5C30.8978 32 31.2794 31.842 31.5607 31.5607C31.842 31.2794 32 30.8978 32 30.5C32 30.1022 31.842 29.7206 31.5607 29.4393C31.2794 29.158 30.8978 29 30.5 29H9.5Z" fill="#214D2F" style="fill:#214D2F;fill:color(display-p3 0.1294 0.3020 0.1843);fill-opacity:1;"/>
</svg>
