<svg width="168" height="42" viewBox="0 0 168 42" fill="none" xmlns="http://www.w3.org/2000/svg">
<path d="M148.849 41.472H143.329L146.329 24.48H152.665C154.857 24.48 156.529 24.936 157.681 25.848C158.849 26.76 159.433 28.016 159.433 29.616C159.433 30.704 159.249 31.648 158.881 32.448C158.529 33.248 158.009 33.904 157.321 34.416C156.633 34.928 155.801 35.312 154.825 35.568C153.849 35.808 152.737 35.928 151.489 35.928H149.857L148.849 41.472ZM151.465 31.752C152.233 31.752 152.833 31.624 153.265 31.368C153.697 31.112 153.913 30.712 153.913 30.168C153.913 29.656 153.737 29.304 153.385 29.112C153.033 28.92 152.553 28.824 151.945 28.824H151.105L150.577 31.752H151.465Z" fill="#214D2F" style="fill:#214D2F;fill:color(display-p3 0.1294 0.3020 0.1843);fill-opacity:1;"/>
<path d="M131.136 41.9041C129.776 41.9041 128.568 41.7201 127.512 41.3521C126.472 40.9681 125.592 40.4321 124.872 39.7441C124.168 39.0561 123.632 38.2401 123.264 37.2961C122.896 36.3521 122.712 35.3121 122.712 34.1761C122.712 32.7681 122.96 31.4481 123.456 30.2161C123.952 28.9841 124.648 27.9121 125.544 27.0001C126.44 26.0881 127.52 25.3681 128.784 24.8401C130.064 24.3121 131.48 24.0481 133.032 24.0481C134.408 24.0481 135.616 24.2401 136.656 24.6241C137.712 24.9921 138.592 25.5201 139.296 26.2081C140.016 26.8961 140.56 27.7121 140.928 28.6561C141.296 29.6001 141.48 30.6401 141.48 31.7761C141.48 33.1841 141.232 34.5041 140.736 35.7361C140.256 36.9681 139.56 38.0401 138.648 38.9521C137.752 39.8641 136.664 40.5841 135.384 41.1121C134.12 41.6401 132.704 41.9041 131.136 41.9041ZM135.696 32.1841C135.696 31.7521 135.624 31.3521 135.48 30.9841C135.352 30.6001 135.152 30.2721 134.88 30.0001C134.624 29.7121 134.296 29.4881 133.896 29.3281C133.512 29.1681 133.072 29.0881 132.576 29.0881C131.952 29.0881 131.384 29.2241 130.872 29.4961C130.376 29.7521 129.952 30.0961 129.6 30.5281C129.248 30.9601 128.976 31.4561 128.784 32.0161C128.592 32.5761 128.496 33.1441 128.496 33.7201C128.496 34.1521 128.56 34.5601 128.688 34.9441C128.832 35.3121 129.032 35.6401 129.288 35.9281C129.56 36.2001 129.888 36.4161 130.272 36.5761C130.672 36.7361 131.128 36.8161 131.64 36.8161C132.264 36.8161 132.824 36.6881 133.32 36.4321C133.816 36.1761 134.24 35.8321 134.592 35.4001C134.944 34.9681 135.216 34.4721 135.408 33.9121C135.6 33.3521 135.696 32.7761 135.696 32.1841Z" fill="#214D2F" style="fill:#214D2F;fill:color(display-p3 0.1294 0.3020 0.1843);fill-opacity:1;"/>
<path d="M112.18 41.472L113.332 34.944H108.484L107.332 41.472H101.788L104.788 24.48H110.308L109.276 30.312H114.124L115.156 24.48H120.724L117.724 41.472H112.18Z" fill="#214D2F" style="fill:#214D2F;fill:color(display-p3 0.1294 0.3020 0.1843);fill-opacity:1;"/>
<path d="M97.358 29.544C97.086 29.224 96.734 28.968 96.302 28.776C95.87 28.568 95.366 28.464 94.79 28.464C94.342 28.464 93.934 28.56 93.566 28.752C93.214 28.944 93.038 29.24 93.038 29.64C93.038 29.96 93.19 30.208 93.494 30.384C93.798 30.56 94.246 30.744 94.838 30.936C95.574 31.176 96.23 31.448 96.806 31.752C97.382 32.056 97.87 32.408 98.27 32.808C98.67 33.208 98.974 33.664 99.182 34.176C99.406 34.688 99.518 35.264 99.518 35.904C99.518 36.992 99.278 37.92 98.798 38.688C98.318 39.456 97.702 40.08 96.95 40.56C96.214 41.04 95.398 41.392 94.502 41.616C93.606 41.84 92.734 41.952 91.886 41.952C91.214 41.952 90.542 41.896 89.87 41.784C89.198 41.672 88.55 41.512 87.926 41.304C87.318 41.096 86.742 40.84 86.198 40.536C85.654 40.232 85.182 39.888 84.782 39.504L88.574 36C88.766 36.224 88.998 36.424 89.27 36.6C89.542 36.776 89.822 36.928 90.11 37.056C90.414 37.168 90.718 37.264 91.022 37.344C91.326 37.408 91.606 37.44 91.862 37.44C92.422 37.44 92.87 37.352 93.206 37.176C93.542 36.984 93.71 36.712 93.71 36.36C93.71 36.072 93.566 35.816 93.278 35.592C93.006 35.368 92.486 35.136 91.718 34.896C91.11 34.704 90.534 34.48 89.99 34.224C89.462 33.968 88.998 33.664 88.598 33.312C88.214 32.944 87.91 32.512 87.686 32.016C87.462 31.504 87.35 30.888 87.35 30.168C87.35 29.288 87.526 28.472 87.878 27.72C88.246 26.968 88.758 26.32 89.414 25.776C90.086 25.216 90.878 24.784 91.79 24.48C92.718 24.16 93.734 24 94.838 24C95.446 24 96.046 24.056 96.638 24.168C97.23 24.264 97.79 24.408 98.318 24.6C98.846 24.776 99.334 24.992 99.782 25.248C100.23 25.504 100.606 25.792 100.91 26.112L97.358 29.544Z" fill="#214D2F" style="fill:#214D2F;fill:color(display-p3 0.1294 0.3020 0.1843);fill-opacity:1;"/>
<path d="M63.5708 41.472L66.5708 24.48H77.6828L76.8668 29.112H70.9868L70.6988 30.744H76.3148L75.5468 35.064H69.9308L69.6188 36.84H76.1948L75.3788 41.472H63.5708Z" fill="#214D2F" style="fill:#214D2F;fill:color(display-p3 0.1294 0.3020 0.1843);fill-opacity:1;"/>
<path d="M55.0212 41.472L51.3012 34.32H51.2532L50.0052 41.472H44.6052L47.6052 24.48H52.9812L51.8292 30.984H51.9012L57.2772 24.48H64.0452L56.4132 32.688L61.6692 41.472H55.0212Z" fill="#214D2F" style="fill:#214D2F;fill:color(display-p3 0.1294 0.3020 0.1843);fill-opacity:1;"/>
<path d="M36.148 41.472L35.764 38.88H30.244L28.828 41.472H22.636L33.076 24.48H38.932L41.908 41.472H36.148ZM34.804 30.264L32.38 34.632H35.308L34.804 30.264Z" fill="#214D2F" style="fill:#214D2F;fill:color(display-p3 0.1294 0.3020 0.1843);fill-opacity:1;"/>
<path d="M22.976 39.528C22.64 39.816 22.248 40.112 21.8 40.416C21.368 40.704 20.872 40.96 20.312 41.184C19.752 41.408 19.12 41.592 18.416 41.736C17.728 41.88 16.96 41.952 16.112 41.952C14.832 41.952 13.688 41.776 12.68 41.424C11.688 41.072 10.84 40.568 10.136 39.912C9.448 39.256 8.92 38.464 8.552 37.536C8.184 36.608 8 35.576 8 34.44C8 32.984 8.248 31.624 8.744 30.36C9.256 29.096 9.968 27.992 10.88 27.048C11.792 26.104 12.872 25.36 14.12 24.816C15.368 24.272 16.736 24 18.224 24C19.696 24 20.992 24.232 22.112 24.696C23.232 25.144 24.088 25.704 24.68 26.376L20.816 30.36C20.528 29.944 20.144 29.64 19.664 29.448C19.2 29.24 18.672 29.136 18.08 29.136C17.472 29.136 16.92 29.264 16.424 29.52C15.928 29.76 15.504 30.096 15.152 30.528C14.8 30.944 14.528 31.432 14.336 31.992C14.144 32.552 14.048 33.152 14.048 33.792C14.048 34.624 14.304 35.328 14.816 35.904C15.344 36.48 16.128 36.768 17.168 36.768C17.776 36.768 18.344 36.64 18.872 36.384C19.4 36.128 19.856 35.816 20.24 35.448L22.976 39.528Z" fill="#214D2F" style="fill:#214D2F;fill:color(display-p3 0.1294 0.3020 0.1843);fill-opacity:1;"/>
<path d="M141.887 17.472L144.887 0.47998H155.999L155.183 5.11198H149.303L149.015 6.74398H154.631L153.863 11.064H148.247L147.935 12.84H154.511L153.695 17.472H141.887Z" fill="#214D2F" style="fill:#214D2F;fill:color(display-p3 0.1294 0.3020 0.1843);fill-opacity:1;"/>
<path d="M133.197 17.472L130.869 11.256H130.197L129.141 17.472H123.789L126.789 0.47998H133.773C134.701 0.47998 135.541 0.58398 136.293 0.791979C137.045 0.999979 137.685 1.30398 138.213 1.70398C138.741 2.10398 139.141 2.59998 139.413 3.19198C139.701 3.76798 139.845 4.43198 139.845 5.18398C139.845 6.59198 139.509 7.75198 138.837 8.66398C138.181 9.57598 137.277 10.2 136.125 10.536L139.437 17.472H133.197ZM131.973 7.72798C132.709 7.72798 133.285 7.60798 133.701 7.36798C134.117 7.11198 134.325 6.71198 134.325 6.16798C134.325 5.67198 134.149 5.33598 133.797 5.15998C133.461 4.96798 132.997 4.87198 132.405 4.87198H131.373L130.869 7.72798H131.973Z" fill="#214D2F" style="fill:#214D2F;fill:color(display-p3 0.1294 0.3020 0.1843);fill-opacity:1;"/>
<path d="M111.597 17.9041C110.237 17.9041 109.029 17.7201 107.973 17.3521C106.933 16.9681 106.053 16.4321 105.333 15.7441C104.629 15.0561 104.093 14.2401 103.725 13.2961C103.357 12.3521 103.173 11.3121 103.173 10.1761C103.173 8.7681 103.421 7.4481 103.917 6.2161C104.413 4.9841 105.109 3.9121 106.005 3.00009C106.901 2.0881 107.981 1.3681 109.245 0.840096C110.525 0.312096 111.941 0.0480957 113.493 0.0480957C114.869 0.0480957 116.077 0.240096 117.117 0.624095C118.173 0.992095 119.053 1.5201 119.757 2.2081C120.477 2.89609 121.021 3.71209 121.389 4.6561C121.757 5.6001 121.941 6.6401 121.941 7.7761C121.941 9.1841 121.693 10.5041 121.197 11.7361C120.717 12.9681 120.021 14.0401 119.109 14.9521C118.213 15.8641 117.125 16.5841 115.845 17.1121C114.581 17.6401 113.165 17.9041 111.597 17.9041ZM116.157 8.1841C116.157 7.7521 116.085 7.3521 115.941 6.9841C115.813 6.6001 115.613 6.2721 115.341 6.0001C115.085 5.7121 114.757 5.4881 114.357 5.32809C113.973 5.1681 113.533 5.0881 113.037 5.0881C112.413 5.0881 111.845 5.2241 111.333 5.4961C110.837 5.7521 110.413 6.0961 110.061 6.5281C109.709 6.9601 109.437 7.4561 109.245 8.0161C109.053 8.5761 108.957 9.14409 108.957 9.72009C108.957 10.1521 109.021 10.5601 109.149 10.9441C109.293 11.3121 109.493 11.6401 109.749 11.9281C110.021 12.2001 110.349 12.4161 110.733 12.5761C111.133 12.7361 111.589 12.8161 112.101 12.8161C112.725 12.8161 113.285 12.6881 113.781 12.4321C114.277 12.1761 114.701 11.8321 115.053 11.4001C115.405 10.9681 115.677 10.4721 115.869 9.9121C116.061 9.3521 116.157 8.7761 116.157 8.1841Z" fill="#214D2F" style="fill:#214D2F;fill:color(display-p3 0.1294 0.3020 0.1843);fill-opacity:1;"/>
<path d="M95.3407 5.13598L94.9807 7.10398H100.213L99.4207 11.616H94.2127L93.1807 17.472H87.7327L90.7327 0.47998H101.677L100.861 5.13598H95.3407Z" fill="#214D2F" style="fill:#214D2F;fill:color(display-p3 0.1294 0.3020 0.1843);fill-opacity:1;"/>
<path d="M65.1294 17.472L68.1294 0.47998H79.2414L78.4254 5.11198H72.5454L72.2574 6.74398H77.8734L77.1054 11.064H71.4894L71.1774 12.84H77.7534L76.9374 17.472H65.1294Z" fill="#214D2F" style="fill:#214D2F;fill:color(display-p3 0.1294 0.3020 0.1843);fill-opacity:1;"/>
<path d="M56.439 17.472L54.111 11.256H53.439L52.383 17.472H47.031L50.031 0.47998H57.015C57.943 0.47998 58.783 0.58398 59.535 0.791979C60.287 0.999979 60.927 1.30398 61.455 1.70398C61.983 2.10398 62.383 2.59998 62.655 3.19198C62.943 3.76798 63.087 4.43198 63.087 5.18398C63.087 6.59198 62.751 7.75198 62.079 8.66398C61.423 9.57598 60.519 10.2 59.367 10.536L62.679 17.472H56.439ZM55.215 7.72798C55.951 7.72798 56.527 7.60798 56.943 7.36798C57.359 7.11198 57.567 6.71198 57.567 6.16798C57.567 5.67198 57.391 5.33598 57.039 5.15998C56.703 4.96798 56.239 4.87198 55.647 4.87198H54.615L54.111 7.72798H55.215Z" fill="#214D2F" style="fill:#214D2F;fill:color(display-p3 0.1294 0.3020 0.1843);fill-opacity:1;"/>
<path d="M34.8388 17.9041C33.4788 17.9041 32.2708 17.7201 31.2148 17.3521C30.1748 16.9681 29.2948 16.4321 28.5748 15.7441C27.8708 15.0561 27.3348 14.2401 26.9668 13.2961C26.5988 12.3521 26.4148 11.3121 26.4148 10.1761C26.4148 8.7681 26.6628 7.4481 27.1588 6.2161C27.6548 4.9841 28.3508 3.9121 29.2468 3.00009C30.1428 2.0881 31.2228 1.3681 32.4868 0.840096C33.7668 0.312096 35.1828 0.0480957 36.7348 0.0480957C38.1108 0.0480957 39.3188 0.240096 40.3588 0.624095C41.4148 0.992095 42.2948 1.5201 42.9988 2.2081C43.7188 2.89609 44.2628 3.71209 44.6308 4.6561C44.9988 5.6001 45.1828 6.6401 45.1828 7.7761C45.1828 9.1841 44.9348 10.5041 44.4388 11.7361C43.9588 12.9681 43.2628 14.0401 42.3508 14.9521C41.4548 15.8641 40.3668 16.5841 39.0868 17.1121C37.8228 17.6401 36.4068 17.9041 34.8388 17.9041ZM39.3988 8.1841C39.3988 7.7521 39.3268 7.3521 39.1828 6.9841C39.0548 6.6001 38.8548 6.2721 38.5828 6.0001C38.3268 5.7121 37.9988 5.4881 37.5988 5.32809C37.2148 5.1681 36.7748 5.0881 36.2788 5.0881C35.6548 5.0881 35.0868 5.2241 34.5748 5.4961C34.0788 5.7521 33.6548 6.0961 33.3028 6.5281C32.9508 6.9601 32.6788 7.4561 32.4868 8.0161C32.2948 8.5761 32.1988 9.14409 32.1988 9.72009C32.1988 10.1521 32.2628 10.5601 32.3908 10.9441C32.5348 11.3121 32.7348 11.6401 32.9908 11.9281C33.2628 12.2001 33.5908 12.4161 33.9748 12.5761C34.3748 12.7361 34.8308 12.8161 35.3428 12.8161C35.9668 12.8161 36.5268 12.6881 37.0228 12.4321C37.5188 12.1761 37.9428 11.8321 38.2948 11.4001C38.6468 10.9681 38.9188 10.4721 39.1108 9.9121C39.3028 9.3521 39.3988 8.7761 39.3988 8.1841Z" fill="#214D2F" style="fill:#214D2F;fill:color(display-p3 0.1294 0.3020 0.1843);fill-opacity:1;"/>
<path d="M18.5829 5.13598L18.2229 7.10398H23.4549L22.6629 11.616H17.4549L16.4229 17.472H10.9749L13.9749 0.47998H24.9189L24.1029 5.13598H18.5829Z" fill="#214D2F" style="fill:#214D2F;fill:color(display-p3 0.1294 0.3020 0.1843);fill-opacity:1;"/>
</svg>
